.
..............................Site Info...........................

 -   http://www.scenetime.com  *_*   

SceneTime is going to Close sign up on march/1, hurry up! get in before the doors are closed.

     We care to share . Join us on  http://www.scenetime.com 

    Be the first to get new release at  http://www.scenetime.com

        Seed back for speed


...................................NFO:.................................................[img]http://img821.imageshack.us/img821/7797/hugobi.jpg[/img]


[color=blue][size=5][b]Hugo.2011.BDRip.XVID.AC3.HQ.Hive-CM8[/b][/size][/color]


[b]Thx Hive

CM8 Doing it right the first time :D


Source: Bluray

Video: 720x400 @bitrate 1700 2pass
Audio: English DTS to AC3 5.1 @448
Sample: yes included
Subs: yes english in srt /subs[/b]



[url]http://www.imdb.com/title/tt0970179/[/url]

General
Complete name                  : Hugo.2011.BDRip.XVID.AC3.HQ.Hive-CM8.avi
Format                         : AVI
Format/Info                    : Audio Video Interleave
File size                      : 1.90 GiB
Duration                       : 2h 6mn
Overall bit rate               : 2 156 Kbps
Writing application            : Nandub v1.0rc2
Writing library                : Nandub build 1853/release

Video
ID                             : 0
Format                         : MPEG-4 Visual
Format profile                 : Advanced Simple@L5
Format settings, BVOP          : 1
Format settings, QPel          : Yes
Format settings, GMC           : No warppoints
Format settings, Matrix        : Default (H.263)
Muxing mode                    : Packed bitstream
Codec ID                       : XVID
Codec ID/Hint                  : XviD
Duration                       : 2h 6mn
Bit rate                       : 1 698 Kbps
Width                          : 720 pixels
Height                         : 400 pixels
Display aspect ratio           : 16:9
Frame rate                     : 23.976 fps
Color space                    : YUV
Chroma subsampling             : 4:2:0
Bit depth                      : 8 bits
Scan type                      : Progressive
Compression mode               : Lossy
Bits/(Pixel*Frame)             : 0.246
Stream size                    : 1.50 GiB (79%)
Writing library                : XviD 1.2.1 (UTC 2008-12-04)

Audio
ID                             : 1
Format                         : AC-3
Format/Info                    : Audio Coding 3
Mode extension                 : CM (complete main)
Codec ID                       : 2000
Duration                       : 2h 6mn
Bit rate mode                  : Constant
Bit rate                       : 448 Kbps
Channel(s)                     : 6 channels
Channel positions              : Front: L C R, Side: L R, LFE
Sampling rate                  : 48.0 KHz
Bit depth                      : 16 bits
Compression mode               : Lossy
Stream size                    : 405 MiB (21%)
Alignment                      : Split accross interleaves
Interleave, duration           : 42 ms (1.00 video frame)
Interleave, preload duration   : 500 ms


Set in 1930s Paris, an orphan who lives in the walls of a train station is wrapped 
up in a mystery involving his late father and an automaton.  


Ben Kingsley	... 	Georges Melies
Sacha Baron Cohen ... 	Station Inspector
Asa Butterfield	  ... 	Hugo Cabret
Chloe Grace Moretz ... 	Isabelle
Ray Winstone	... 	Uncle Claude


[img]http://img16.imageshack.us/img16/5691/28037878.png[/img]
[img]http://img267.imageshack.us/img267/2563/huhutn.png[/img]
[img]http://img197.imageshack.us/img197/9866/huhuhuvn.png[/img]
[img]http://img811.imageshack.us/img811/2482/huhuhuhu.png[/img]
[img]http://img11.imageshack.us/img11/8135/huhhuuhuhu.png[/img]
[img]http://img194.imageshack.us/img194/3631/huhhuhuuhuhu.png[/img]
[img]http://img843.imageshack.us/img843/7300/huhhuhuhuuhuhu.png[/img]
[img]http://img20.imageshack.us/img20/3097/huhhuhuhuhuuhuhu.png[/img]




Greetz

ViSiON,SPK,SceneLovers,PRESTiGE,SANTi,3LT0N,YanKeeS,COPYxRIGHT,THC,T0XiC
D2U,LKRG,Feel-Free,FLAWL3SS,WBZ,BHRG,26K,NOVA,TED,MAGNET,jtr
Unevano,Rapeseed,SAFC,goldadvance,KaN1vE,Pinnz,Wayne
Mr Hive,and most P2P groups
Great Work Guys :D

LOOKING FOR ANYTHING YOU WANT TO LOOK AND SOUND BETTER

CM8@hushmail.com